# This file uses centimeters as units for non-parametric coordinates.

mtllib maze.mtl
g default
v -6.761338 0.000000 8.528504
v 10.595419 0.000000 8.528504
v -6.761338 5.083421 8.528504
v 10.595419 5.083421 8.528504
v -6.761338 5.083421 8.197145
v 10.595419 5.083421 8.197145
v -6.761338 0.000000 8.197145
v 10.595419 0.000000 8.197145
v -6.259685 5.083421 8.197145
v -6.259685 0.000000 8.197145
v -6.259685 0.000000 8.528504
v -6.259685 5.083421 8.528504
v -6.259685 5.083421 8.197145
v -6.259685 0.000000 8.197145
v -6.259685 0.000000 8.528504
v -6.259685 5.083421 8.528504
v -6.761338 5.083421 -3.981772
v -6.259685 5.083421 -3.981772
v -6.259685 0.000000 -3.981772
v -6.761338 0.000000 -3.981772
v -6.761338 5.083421 -3.461440
v -6.761338 0.000000 -3.461440
v -6.259685 0.000000 -3.461440
v -6.259685 5.083421 -3.461440
v -11.693336 5.083421 -3.461440
v -11.693336 0.000000 -3.461440
v -11.693336 5.083421 -3.981772
v -11.693336 0.000000 -3.981772
v -11.693336 5.083421 -3.461440
v -11.693336 0.000000 -3.461440
v -11.693336 5.083421 -3.981772
v -11.693336 0.000000 -3.981772
v -10.799654 5.083421 -3.461440
v -10.799654 0.000000 -3.461440
v -10.799654 0.000000 -3.981772
v -10.799654 5.083421 -3.981772
v -11.180669 5.083421 -3.461440
v -11.180669 0.000000 -3.461440
v -11.180669 0.000000 -3.981772
v -11.180669 5.083421 -3.981772
v -11.180669 5.083421 8.118902
v -11.180669 0.000000 8.118902
v -11.693336 5.083421 8.118902
v -11.693336 0.000000 8.118902
v -11.693336 5.083421 7.823810
v -11.180669 5.083421 7.823810
v -11.180669 0.000000 7.823810
v -11.693336 0.000000 7.823810
v -22.811887 0.000000 7.823810
v -22.811887 5.083421 7.823810
v -22.811887 0.000000 8.118902
v -22.811887 5.083421 8.118902
vt 0.375000 0.000000
vt 0.625000 0.000000
vt 0.375000 0.250000
vt 0.625000 0.250000
vt 0.375000 0.500000
vt 0.625000 0.500000
vt 0.375000 0.750000
vt 0.625000 0.750000
vt 0.375000 1.000000
vt 0.625000 1.000000
vt 0.875000 0.000000
vt 0.875000 0.250000
vt 0.125000 0.000000
vt 0.125000 0.250000
vt 0.382226 0.500000
vt 0.382226 0.750000
vt 0.382226 0.000000
vt 0.382226 1.000000
vt 0.382226 0.250000
vt 0.000000 0.000000
vt 1.000000 0.000000
vt 1.000000 1.000000
vt 0.000000 1.000000
vt 0.000000 0.000000
vt 1.000000 0.000000
vt 1.000000 1.000000
vt 0.000000 1.000000
vt 0.000000 0.000000
vt 1.000000 0.000000
vt 1.000000 1.000000
vt 0.000000 1.000000
vt 0.000000 0.000000
vt 1.000000 0.000000
vt 1.000000 1.000000
vt 0.000000 1.000000
vt 0.375000 0.500000
vt 0.382226 0.500000
vt 0.382226 0.750000
vt 0.375000 0.750000
vt 0.375000 0.500000
vt 0.375000 0.750000
vt 0.382226 0.750000
vt 0.382226 0.500000
vt 0.375000 0.750000
vt 0.375000 0.500000
vt 0.375000 0.500000
vt 0.375000 0.750000
vt 0.375000 0.750000
vt 0.375000 0.500000
vt 0.375000 0.500000
vt 0.375000 0.750000
vt 0.375000 0.500000
vt 0.375000 0.750000
vt 0.375000 0.750000
vt 0.375000 0.500000
vt 0.375000 0.500000
vt 0.375000 0.750000
vt 0.375000 0.750000
vt 0.375000 0.500000
vt 0.375000 0.750000
vt 0.375000 0.500000
vt 0.375000 0.500000
vt 0.375000 0.750000
vt 0.375000 0.500000
vt 0.375000 0.500000
vt 0.375000 0.750000
vt 0.375000 0.750000
vt 0.375000 0.500000
vt 0.375000 0.750000
vt 0.375000 0.750000
vt 0.375000 0.500000
vn 0.000000 0.000000 1.000000
vn 0.000000 0.000000 1.000000
vn 0.000000 0.000000 1.000000
vn 0.000000 0.000000 1.000000
vn 0.000000 1.000000 0.000000
vn 0.000000 1.000000 0.000000
vn 0.000000 1.000000 0.000000
vn 0.000000 1.000000 0.000000
vn 0.000000 0.000000 -1.000000
vn 0.000000 0.000000 -1.000000
vn 0.000000 0.000000 -1.000000
vn 0.000000 0.000000 -1.000000
vn 0.000000 -1.000000 0.000000
vn 0.000000 -1.000000 0.000000
vn 0.000000 -1.000000 0.000000
vn 0.000000 -1.000000 0.000000
vn 1.000000 0.000000 0.000000
vn 1.000000 0.000000 0.000000
vn 1.000000 0.000000 0.000000
vn 1.000000 0.000000 0.000000
vn -1.000000 0.000000 0.000000
vn -1.000000 0.000000 0.000000
vn -1.000000 0.000000 0.000000
vn -1.000000 0.000000 0.000000
vn 0.000000 0.000000 -1.000000
vn 0.000000 0.000000 -1.000000
vn 0.000000 0.000000 -1.000000
vn 0.000000 0.000000 -1.000000
vn 0.000000 -1.000000 0.000000
vn 0.000000 -1.000000 0.000000
vn 0.000000 -1.000000 0.000000
vn 0.000000 -1.000000 0.000000
vn 0.000000 0.000000 1.000000
vn 0.000000 0.000000 1.000000
vn 0.000000 0.000000 1.000000
vn 0.000000 0.000000 1.000000
vn 0.000000 1.000000 0.000000
vn 0.000000 1.000000 0.000000
vn 0.000000 1.000000 0.000000
vn 0.000000 1.000000 0.000000
vn 0.000000 0.000000 0.000000
vn 0.000000 0.000000 0.000000
vn 0.000000 0.000000 0.000000
vn 0.000000 0.000000 0.000000
vn 0.000000 0.000000 0.000000
vn 0.000000 0.000000 0.000000
vn 0.000000 0.000000 0.000000
vn 0.000000 0.000000 0.000000
vn 0.000000 0.000000 0.000000
vn 0.000000 0.000000 0.000000
vn 0.000000 0.000000 0.000000
vn 0.000000 0.000000 0.000000
vn 0.000000 0.000000 0.000000
vn 0.000000 0.000000 0.000000
vn 0.000000 0.000000 0.000000
vn 0.000000 0.000000 0.000000
vn 0.000000 1.000000 0.000000
vn 0.000000 1.000000 0.000000
vn 1.000000 0.000000 0.000000
vn 1.000000 0.000000 0.000000
vn 1.000000 0.000000 0.000000
vn 1.000000 0.000000 0.000000
vn 0.000000 -1.000000 0.000000
vn 0.000000 -1.000000 0.000000
vn -1.000000 0.000000 0.000000
vn -1.000000 0.000000 0.000000
vn -1.000000 0.000000 0.000000
vn -1.000000 0.000000 0.000000
vn -1.000000 0.000000 0.000000
vn -1.000000 0.000000 0.000000
vn 0.000000 -1.000000 0.000000
vn 0.000000 -1.000000 0.000000
vn 1.000000 0.000000 0.000000
vn 1.000000 0.000000 0.000000
vn 0.000000 1.000000 0.000000
vn 0.000000 1.000000 0.000000
vn 0.000000 0.000000 1.000000
vn 0.000000 0.000000 1.000000
vn 0.000000 0.000000 1.000000
vn 0.000000 0.000000 1.000000
vn 0.000000 1.000000 0.000000
vn 0.000000 1.000000 0.000000
vn 0.000000 0.000000 -1.000000
vn 0.000000 0.000000 -1.000000
vn 0.000000 -1.000000 0.000000
vn 0.000000 -1.000000 0.000000
vn 0.000000 0.000000 0.000000
vn 0.000000 0.000000 0.000000
vn 0.000000 0.000000 0.000000
vn 0.000000 0.000000 0.000000
vn 0.000000 0.000000 0.000000
vn 0.000000 0.000000 0.000000
vn 0.000000 0.000000 0.000000
vn 0.000000 0.000000 0.000000
vn 0.000000 0.000000 0.000000
vn 0.000000 0.000000 0.000000
vn 0.000000 0.000000 0.000000
vn 0.000000 0.000000 0.000000
vn 0.000000 0.000000 0.000000
vn 0.000000 0.000000 0.000000
vn 0.000000 0.000000 0.000000
vn 0.000000 0.000000 0.000000
vn 0.000000 0.000000 1.000000
vn 0.000000 0.000000 1.000000
vn 0.000000 -1.000000 0.000000
vn 0.000000 -1.000000 0.000000
vn 0.000000 0.000000 -1.000000
vn 0.000000 0.000000 -1.000000
vn 0.000000 1.000000 0.000000
vn 0.000000 1.000000 0.000000
vn 0.000000 0.000000 1.000000
vn 0.000000 0.000000 1.000000
vn 0.000000 0.000000 1.000000
vn 0.000000 0.000000 1.000000
vn 0.000000 -1.000000 0.000000
vn 0.000000 -1.000000 0.000000
vn 0.000000 0.000000 -1.000000
vn 0.000000 0.000000 -1.000000
vn 0.000000 1.000000 0.000000
vn 0.000000 1.000000 0.000000
vn 1.000000 0.000000 0.000000
vn 1.000000 0.000000 0.000000
vn 1.000000 0.000000 0.000000
vn 1.000000 0.000000 0.000000
vn 0.000000 1.000000 0.000000
vn 0.000000 1.000000 0.000000
vn -1.000000 0.000000 0.000000
vn -1.000000 0.000000 0.000000
vn -1.000000 0.000000 0.000000
vn -1.000000 0.000000 0.000000
vn 0.000000 -1.000000 0.000000
vn 0.000000 -1.000000 0.000000
vn 0.000000 1.000000 0.000000
vn 0.000000 1.000000 0.000000
vn 1.000000 0.000000 0.000000
vn 1.000000 0.000000 0.000000
vn 0.000000 -1.000000 0.000000
vn 0.000000 -1.000000 0.000000
vn -1.000000 0.000000 0.000000
vn -1.000000 0.000000 0.000000
vn -1.000000 0.000000 0.000000
vn -1.000000 0.000000 0.000000
vn 0.000000 0.000000 -1.000000
vn 0.000000 0.000000 -1.000000
vn 0.000000 0.000000 -1.000000
vn 0.000000 0.000000 -1.000000
vn 0.000000 -1.000000 0.000000
vn 0.000000 -1.000000 0.000000
vn 0.000000 0.000000 1.000000
vn 0.000000 0.000000 1.000000
vn 0.000000 1.000000 0.000000
vn 0.000000 1.000000 0.000000
s off
g pCube1
usemtl initialShadingGroup
f 1/1/1 11/17/2 12/19/3 3/3/4
s 1
f 3/3/5 12/19/6 9/15/7 5/5/8
s 2
f 17/36/9 18/37/10 19/38/11 20/39/12
s 3
f 7/7/13 10/16/14 11/18/15 1/9/16
s off
f 2/2/17 8/11/18 6/12/19 4/4/20
s 4
f 7/13/21 1/1/22 3/3/23 5/14/24
s off
f 9/15/25 6/6/26 8/8/27 10/16/28
f 11/18/29 10/16/30 8/8/31 2/10/32
f 12/19/33 11/17/34 2/2/35 4/4/36
f 9/15/37 12/19/38 4/4/39 6/6/40
f 9/20/41 10/21/42 14/22/43 13/23/44
f 10/24/45 11/25/46 15/26/47 14/27/48
f 11/28/49 12/29/50 16/30/51 15/31/52
f 12/32/53 9/33/54 13/34/55 16/35/56
s 1
f 5/5/8 9/15/7 24/43/57 21/40/58
s 5
f 9/15/59 10/16/60 23/42/61 24/43/62
s 3
f 10/16/14 7/7/13 22/41/63 23/42/64
s 4
f 7/7/21 5/5/24 21/40/65 22/41/66
s off
f 30/48/67 29/49/68 31/50/69 32/51/70
s 3
f 23/42/64 22/41/63 20/39/71 19/38/72
s 5
f 24/43/62 23/42/61 19/38/73 18/37/74
s 1
f 21/40/58 24/43/57 18/37/75 17/36/76
s 6
f 22/41/77 21/40/78 33/52/79 34/53/80
s 1
f 21/40/58 17/36/76 36/55/81 33/52/82
s 2
f 17/36/9 20/39/12 35/54/83 36/55/84
s 3
f 20/39/71 22/41/63 34/53/85 35/54/86
s off
f 26/44/87 25/45/88 29/49/89 30/48/90
f 25/45/91 27/46/92 31/50/93 29/49/94
f 27/46/95 28/47/96 32/51/97 31/50/98
f 28/47/99 26/44/100 30/48/101 32/51/102
s 6
f 34/53/80 33/52/79 37/56/103 38/57/104
s 3
f 35/54/86 34/53/85 38/57/105 39/58/106
s 2
f 36/55/84 35/54/83 39/58/107 40/59/108
s 1
f 33/52/82 36/55/81 40/59/109 37/56/110
s 7
f 42/60/111 41/61/112 43/62/113 44/63/114
s 3
f 39/58/106 38/57/105 26/44/115 28/47/116
s 2
f 40/59/108 39/58/107 28/47/117 27/46/118
s 1
f 37/56/110 40/59/109 27/46/119 25/45/120
s 8
f 38/57/121 37/56/122 46/65/123 47/66/124
s 1
f 37/56/110 25/45/120 45/64/125 46/65/126
s off
f 25/45/127 26/44/128 48/67/129 45/64/130
s 3
f 26/44/115 38/57/105 47/66/131 48/67/132
s 1
f 46/65/126 45/64/125 43/62/133 41/61/134
s 8
f 47/66/124 46/65/123 41/61/135 42/60/136
s 3
f 48/67/132 47/66/131 42/60/137 44/63/138
s off
f 50/68/139 49/69/140 51/70/141 52/71/142
f 45/64/143 48/67/144 49/69/145 50/68/146
s 3
f 48/67/132 44/63/138 51/70/147 49/69/148
s 7
f 44/63/114 43/62/113 52/71/149 51/70/150
s 1
f 43/62/133 45/64/125 50/68/151 52/71/152
g default
v -2.247564 0.000000 4.781700
v 10.664159 0.000000 4.781700
v -2.247564 5.083421 4.781700
v 10.664159 5.083421 4.781700
v -2.247564 5.083421 4.450340
v 10.664159 5.083421 4.450340
v -2.247564 0.000000 4.450340
v 10.664159 0.000000 4.450340
v -1.877656 5.083421 4.450340
v -1.877656 0.000000 4.450340
v -1.877656 0.000000 4.781700
v -1.877656 5.083421 4.781700
v -2.247564 5.083421 -9.759485
v -1.877656 5.083421 -9.759485
v -1.877656 0.000000 -9.759485
v -2.247564 0.000000 -9.759485
v -2.247564 5.083421 -9.377826
v -2.247564 0.000000 -9.377826
v -1.877656 0.000000 -9.377826
v -1.877656 5.083421 -9.377826
v -23.468253 5.083421 -9.377826
v -23.468253 0.000000 -9.377826
v -23.468253 5.083421 -9.759485
v -23.468253 0.000000 -9.759485
v -22.705462 5.083421 -9.377826
v -22.705462 0.000000 -9.377826
v -22.705462 0.000000 -9.759485
v -22.705462 5.083421 -9.759485
v -22.705462 5.083421 8.374458
v -22.705462 0.000000 8.374458
v -23.468253 5.083421 8.374458
v -23.468253 0.000000 8.374458
vt 0.375000 0.000000
vt 0.625000 0.000000
vt 0.375000 0.250000
vt 0.625000 0.250000
vt 0.375000 0.500000
vt 0.625000 0.500000
vt 0.375000 0.750000
vt 0.625000 0.750000
vt 0.375000 1.000000
vt 0.625000 1.000000
vt 0.875000 0.000000
vt 0.875000 0.250000
vt 0.125000 0.000000
vt 0.125000 0.250000
vt 0.382162 0.500000
vt 0.382162 0.750000
vt 0.382162 0.000000
vt 0.382162 1.000000
vt 0.382162 0.250000
vt 0.375000 0.500000
vt 0.382162 0.500000
vt 0.382162 0.750000
vt 0.375000 0.750000
vt 0.375000 0.500000
vt 0.375000 0.750000
vt 0.382162 0.750000
vt 0.382162 0.500000
vt 0.375000 0.750000
vt 0.375000 0.500000
vt 0.375000 0.500000
vt 0.375000 0.750000
vt 0.375000 0.500000
vt 0.375000 0.750000
vt 0.375000 0.750000
vt 0.375000 0.500000
vt 0.375000 0.750000
vt 0.375000 0.500000
vt 0.375000 0.500000
vt 0.375000 0.750000
vn 0.000000 0.000000 1.000000
vn 0.000000 0.000000 1.000000
vn 0.000000 0.000000 1.000000
vn 0.000000 0.000000 1.000000
vn 0.000000 1.000000 0.000000
vn 0.000000 1.000000 0.000000
vn 0.000000 1.000000 0.000000
vn 0.000000 1.000000 0.000000
vn 0.000000 0.000000 -1.000000
vn 0.000000 0.000000 -1.000000
vn 0.000000 0.000000 -1.000000
vn 0.000000 0.000000 -1.000000
vn 0.000000 -1.000000 0.000000
vn 0.000000 -1.000000 0.000000
vn 0.000000 -1.000000 0.000000
vn 0.000000 -1.000000 0.000000
vn 1.000000 0.000000 0.000000
vn 1.000000 0.000000 0.000000
vn 1.000000 0.000000 0.000000
vn 1.000000 0.000000 0.000000
vn -1.000000 0.000000 0.000000
vn -1.000000 0.000000 0.000000
vn -1.000000 0.000000 0.000000
vn -1.000000 0.000000 0.000000
vn 0.000000 0.000000 -1.000000
vn 0.000000 0.000000 -1.000000
vn 0.000000 0.000000 -1.000000
vn 0.000000 0.000000 -1.000000
vn 0.000000 -1.000000 0.000000
vn 0.000000 -1.000000 0.000000
vn 0.000000 0.000000 1.000000
vn 0.000000 0.000000 1.000000
vn 0.000000 1.000000 0.000000
vn 0.000000 1.000000 0.000000
vn 0.000000 1.000000 0.000000
vn 0.000000 1.000000 0.000000
vn 1.000000 0.000000 -0.000000
vn 1.000000 0.000000 -0.000000
vn 1.000000 0.000000 -0.000000
vn 1.000000 0.000000 -0.000000
vn 0.000000 -1.000000 -0.000000
vn 0.000000 -1.000000 -0.000000
vn -1.000000 0.000000 0.000000
vn -1.000000 0.000000 0.000000
vn -1.000000 0.000000 0.000000
vn -1.000000 0.000000 0.000000
vn -1.000000 0.000000 0.000000
vn -1.000000 0.000000 0.000000
vn 0.000000 -1.000000 -0.000000
vn 0.000000 -1.000000 -0.000000
vn 1.000000 0.000000 0.000001
vn 1.000000 0.000000 0.000001
vn 0.000000 1.000000 0.000000
vn 0.000000 1.000000 0.000000
vn 0.000000 0.000000 1.000000
vn 0.000000 0.000000 1.000000
vn 0.000000 0.000000 1.000000
vn 0.000000 0.000000 1.000000
vn 0.000000 1.000000 0.000000
vn 0.000000 1.000000 0.000000
vn 0.000000 0.000000 -1.000000
vn 0.000000 0.000000 -1.000000
vn 0.000000 -1.000000 0.000000
vn 0.000000 -1.000000 0.000000
vn 0.000000 0.000000 1.000000
vn 0.000000 0.000000 1.000000
vn 0.000000 0.000000 1.000000
vn 0.000000 0.000000 1.000000
vn 0.000000 -1.000000 0.000000
vn 0.000000 -1.000000 0.000000
vn 0.000000 0.000000 -1.000000
vn 0.000000 0.000000 -1.000000
vn 0.000000 1.000000 0.000000
vn 0.000000 1.000000 0.000000
vn 1.000000 0.000000 0.000000
vn 1.000000 0.000000 0.000000
vn 1.000000 0.000000 0.000000
vn 1.000000 0.000000 0.000000
vn 0.000000 1.000000 0.000000
vn 0.000000 1.000000 0.000000
vn -1.000000 0.000000 0.000000
vn -1.000000 0.000000 0.000000
vn 0.000000 -1.000000 0.000000
vn 0.000000 -1.000000 0.000000
s 1
g pCube2
usemtl initialShadingGroup
f 53/72/153 63/88/154 64/90/155 55/74/156
s 2
f 55/74/157 64/90/158 61/86/159 57/76/160
s 3
f 65/91/161 66/92/162 67/93/163 68/94/164
s 4
f 59/78/165 62/87/166 63/89/167 53/80/168
s off
f 54/73/169 60/82/170 58/83/171 56/75/172
s 5
f 59/84/173 53/72/174 55/74/175 57/85/176
s off
f 61/86/177 58/77/178 60/79/179 62/87/180
s 4
f 63/89/167 62/87/166 60/79/181 54/81/182
s 1
f 64/90/155 63/88/154 54/73/183 56/75/184
s 2
f 61/86/159 64/90/158 56/75/185 58/77/186
f 57/76/160 61/86/159 72/98/187 69/95/188
s 6
f 61/86/189 62/87/190 71/97/191 72/98/192
s 4
f 62/87/166 59/78/165 70/96/193 71/97/194
s 5
f 59/78/173 57/76/176 69/95/195 70/96/196
s 7
f 74/99/197 73/100/198 75/101/199 76/102/200
s 4
f 71/97/194 70/96/193 68/94/201 67/93/202
s 6
f 72/98/192 71/97/191 67/93/203 66/92/204
s 2
f 69/95/188 72/98/187 66/92/205 65/91/206
s off
f 70/96/207 69/95/208 77/103/209 78/104/210
s 2
f 69/95/188 65/91/206 80/106/211 77/103/212
s 3
f 65/91/161 68/94/164 79/105/213 80/106/214
s 4
f 68/94/201 70/96/193 78/104/215 79/105/216
s off
f 82/107/217 81/108/218 83/109/219 84/110/220
s 4
f 79/105/216 78/104/215 74/99/221 76/102/222
s 3
f 80/106/214 79/105/213 76/102/223 75/101/224
s 2
f 77/103/212 80/106/211 75/101/225 73/100/226
s off
f 78/104/227 77/103/228 81/108/229 82/107/230
s 2
f 77/103/212 73/100/226 83/109/231 81/108/232
s 7
f 73/100/198 74/99/197 84/110/233 83/109/234
s 4
f 74/99/221 78/104/215 82/107/235 84/110/236
